<?xml version="1.0" standalone="no"?>
<!DOCTYPE svg PUBLIC "-//W3C//DTD SVG 20010904//EN"
 "http://www.w3.org/TR/2001/REC-SVG-20010904/DTD/svg10.dtd">
<svg version="1.0" xmlns="http://www.w3.org/2000/svg"
 width="452.000000pt" height="452.000000pt" viewBox="0 0 452.000000 452.000000"
 preserveAspectRatio="xMidYMid meet">
<metadata>
Created by potrace 1.14, written by Peter Selinger 2001-2017
</metadata>
<g transform="translate(0.000000,452.000000) scale(0.100000,-0.100000)"
fill="#000000" stroke="none">
<path d="M2 2260 l0 -1270 2258 0 2257 0 -1 157 c-1 87 -5 164 -10 172 -6 9
-5 12 1 8 15 -10 15 334 0 352 -9 11 -9 13 -1 8 17 -10 17 932 0 952 -7 9 -7
12 0 8 7 -4 11 124 11 438 l0 445 -2257 0 -2258 0 0 -1270z"/>
</g>
</svg>
